<?xml version="1.0" standalone="no"?>
<!DOCTYPE svg PUBLIC "-//W3C//DTD SVG 20010904//EN"
 "http://www.w3.org/TR/2001/REC-SVG-20010904/DTD/svg10.dtd">
<svg version="1.0" xmlns="http://www.w3.org/2000/svg"
 width="500.000000pt" height="500.000000pt" viewBox="0 0 500.000000 500.000000"
 preserveAspectRatio="xMidYMid meet">

<g transform="translate(0.000000,500.000000) scale(0.100000,-0.100000)"
fill="#000000" stroke="none">
<path d="M2323 4579 c-101 -9 -228 -32 -353 -64 -105 -26 -345 -119 -430 -167
-30 -17 -69 -39 -87 -49 -61 -34 -113 -72 -113 -81 0 -5 -4 -7 -8 -4 -15 9
-205 -144 -296 -238 -146 -151 -294 -345 -280 -368 4 -6 3 -8 -3 -5 -12 8 -55
-67 -45 -78 4 -5 2 -5 -4 -2 -12 7 -104 -175 -107 -211 -1 -12 -4 -22 -8 -22
-3 0 -12 -19 -19 -42 -8 -24 -17 -47 -20 -53 -12 -19 -51 -152 -53 -184 -1
-17 -5 -31 -8 -31 -8 0 -24 -91 -35 -185 -3 -33 -7 -64 -8 -70 0 -5 5 -9 12
-7 8 1 11 -2 7 -8 -3 -6 -11 -8 -16 -4 -7 4 -9 -22 -7 -74 2 -44 0 -78 -4 -76
-4 3 -5 -55 -2 -128 3 -73 5 -143 5 -156 -1 -13 2 -21 7 -19 4 3 7 -16 8 -41
0 -57 13 -149 25 -180 5 -13 9 -35 9 -50 0 -22 2 -24 11 -12 8 12 9 11 5 -5
-6 -21 15 -96 57 -207 28 -73 116 -260 126 -268 3 -3 7 -10 8 -17 4 -20 105
-173 114 -173 5 0 9 -5 9 -11 0 -29 157 -212 173 -202 6 3 7 1 3 -6 -9 -14 22
-45 194 -195 65 -57 238 -165 375 -235 76 -39 141 -69 143 -66 3 3 11 0 17 -5
10 -8 71 -32 145 -55 225 -73 498 -106 755 -94 355 18 719 136 1023 333 159
103 358 282 479 431 64 80 181 262 230 360 140 278 210 549 220 860 19 544
-182 1082 -564 1511 -204 229 -490 422 -788 532 -147 54 -161 58 -300 86 -211
44 -402 55 -602 35z m460 -154 c314 -42 638 -180 899 -386 42 -33 123 -109
180 -168 276 -285 451 -615 534 -1006 31 -148 44 -450 25 -612 -49 -419 -257
-833 -569 -1135 -312 -301 -688 -477 -1126 -529 -126 -15 -448 -6 -571 15 -49
9 -124 25 -165 37 -41 11 -88 24 -105 28 -57 16 -189 69 -294 120 -100 47
-298 182 -390 266 -359 326 -570 750 -622 1250 -21 200 -1 470 47 659 8 32 13
65 10 73 -3 8 -1 11 4 8 6 -3 10 -3 10 2 0 4 3 19 7 32 5 18 3 22 -7 16 -9 -5
-11 -4 -6 4 4 6 11 9 15 7 4 -3 16 22 26 56 10 33 31 86 46 118 15 32 35 75
43 95 24 58 113 202 182 295 131 177 302 338 474 448 47 29 96 61 110 71 41
27 239 117 320 144 136 47 309 86 435 101 86 9 392 4 488 -9z"/>
<path d="M2360 4113 c-55 -6 -203 -34 -215 -41 -5 -4 -19 -8 -30 -9 -11 -2
-27 -6 -35 -10 -8 -3 -21 -7 -28 -9 -64 -13 -227 -99 -313 -164 -68 -52 -249
-244 -249 -265 0 -2 -10 -16 -22 -30 -46 -53 -121 -192 -112 -207 4 -7 3 -8
-4 -4 -15 9 -75 -112 -68 -137 2 -9 1 -15 -4 -12 -9 6 -55 -101 -52 -125 0 -3
-5 -14 -10 -24 -13 -23 -44 -172 -53 -250 -6 -48 -5 -57 6 -52 8 4 7 1 -2 -6
-30 -25 -19 -216 19 -333 9 -27 17 -55 18 -62 4 -24 112 -179 150 -215 84 -81
165 -148 178 -148 4 0 6 295 6 655 -1 508 -4 654 -13 649 -9 -5 -8 -3 1 7 14
15 17 33 4 25 -5 -3 -9 1 -9 9 0 8 4 12 9 9 5 -3 7 6 4 20 l-5 26 92 1 c51 1
261 1 467 1 206 -1 590 -1 852 -1 l478 -1 2 -827 c3 -756 4 -828 19 -831 9 -2
24 5 34 14 15 15 17 30 11 98 -3 45 -9 95 -12 113 -6 30 -3 34 30 49 33 16 36
21 36 61 0 41 2 44 39 59 50 20 66 55 58 132 l-6 58 121 23 c139 26 148 29
148 45 0 6 -36 90 -81 186 -95 205 -149 328 -149 340 0 4 11 11 25 14 l25 6 0
138 c0 187 -21 275 -107 447 -152 306 -482 530 -843 574 -72 9 -337 11 -410 4z"/>
<path d="M1653 3317 c-2 -4 -9 -5 -14 -2 -7 5 -17 -1311 -11 -1514 2 -65 15
-77 93 -86 30 -4 60 -10 65 -13 6 -4 30 -36 54 -72 58 -86 149 -173 216 -206
l54 -26 2 -337 3 -336 115 -18 c63 -9 180 -19 260 -22 122 -5 165 -2 275 17
l130 23 5 325 5 325 34 87 34 88 76 29 c42 15 124 45 183 67 l107 38 4 70 c4
53 1 1553 -2 1575 -2 7 -1683 -4 -1688 -12z m907 -158 c206 -93 215 -387 16
-492 -63 -33 -176 -31 -236 5 -61 35 -120 110 -138 173 -13 44 -8 131 9 170
23 50 89 118 143 145 55 27 145 27 206 -1z m-23 -765 c111 -53 124 -222 22
-294 -33 -24 -102 -37 -142 -26 -13 3 -44 23 -69 45 -87 77 -85 179 5 256 36
31 47 35 95 35 30 0 70 -7 89 -16z"/>
<path d="M2405 2351 c-37 -15 -58 -49 -63 -101 -4 -46 -2 -52 30 -84 42 -42
77 -52 128 -37 94 28 108 171 20 216 -31 16 -83 19 -115 6z m121 -35 c28 -28
34 -42 34 -76 0 -56 -42 -100 -95 -100 -49 0 -105 53 -105 99 0 101 97 146
166 77z"/>
<path d="M2414 2275 c-12 -18 -14 -31 -7 -52 8 -24 15 -28 48 -28 32 0 42 5
54 26 13 24 13 29 -2 53 -23 35 -70 36 -93 1z"/>
</g>
</svg>
