<svg width="421" height="165" viewBox="0 0 421 165" fill="none" xmlns="http://www.w3.org/2000/svg"><path d="M32.16 96H2.4V93.48C13.8 93.48 14.88 91.8 14.88 84.48V11.52C14.88 4.19999 13.8 2.51999 2.4 2.51999V-1.43051e-06H30.48C56.64 -1.43051e-06 77.64 17.52 77.64 48.84C77.64 78 59.28 96 32.16 96ZM31.08 91.92C57.84 91.92 69.72 72.36 69.72 49.32C69.72 22.2 53.28 4.08 31.56 4.08C28.44 4.08 25.92 4.44 24.84 4.68C23.16 5.04 22.32 6.24 22.32 7.92V86.76C22.32 90.96 25.44 91.92 31.08 91.92ZM108.203 30.84C111.683 30.84 113.723 32.76 113.723 35.52C113.723 39 111.443 40.92 109.403 40.92C107.723 40.92 106.883 40.2 105.803 39C104.603 37.8 104.003 37.32 102.683 37.32C99.9225 37.32 96.6825 41.04 93.4425 49.08V84.24C93.4425 91.92 94.7625 93.36 105.323 93.36V96H79.1625V93.48C86.0025 93.48 86.9625 91.92 86.9625 84.48V44.52C86.9625 36.96 86.9625 35.64 80.0025 38.4L79.0425 36.12L92.0025 30.84L93.4425 32.16V42.84H93.8025C97.1625 36.12 102.323 30.84 108.203 30.84ZM147.86 70.68H150.38C148.46 89.76 140.66 97.92 131.06 97.92C118.7 97.92 111.5 84.36 111.5 65.4C111.5 46.32 118.94 30.84 131.54 30.84C143.06 30.84 149.66 42.96 149.66 60.84H118.46V63.12C118.46 78.84 123.74 91.8 133.22 91.8C138.74 91.8 145.1 87.12 147.86 70.68ZM131.66 34.92C123.86 34.92 119.78 45 118.7 56.76H142.58C142.58 45.84 139.7 34.92 131.66 34.92ZM195.938 83.28H198.458C198.338 91.44 196.298 97.92 189.818 97.92C184.418 97.92 181.298 93.6 181.298 84.72V79.92C178.058 91.8 171.938 97.92 164.138 97.92C156.218 97.92 151.897 91.56 151.897 84C151.897 69.12 168.098 62.16 181.298 55.8V48.96C181.298 38.52 177.458 34.8 171.098 34.8C165.938 34.8 161.978 37.32 161.978 41.76C161.978 44.64 163.658 45.72 163.658 48.24C163.658 50.76 162.218 52.44 159.578 52.44C156.338 52.44 154.658 49.68 154.658 45.84C154.658 37.44 162.218 30.72 172.298 30.72C181.298 30.72 187.898 36.12 187.898 48.84V85.68C187.898 92.28 189.458 93.72 191.378 93.72C193.898 93.72 195.818 91.32 195.938 83.28ZM166.178 91.8C171.578 91.8 177.578 86.64 181.298 73.56V59.28C170.498 65.04 158.858 70.92 158.858 82.32C158.858 87.72 161.258 91.8 166.178 91.8ZM265.534 46.92V84.48C265.534 91.92 266.374 93.48 273.214 93.48V96H251.494V93.48C258.094 93.48 258.934 91.92 258.934 84.48V47.28C258.934 40.08 256.174 36.84 251.374 36.84C246.334 36.84 242.134 40.44 237.934 45.84V46.92V84.48C237.934 91.92 238.774 93.48 245.374 93.48V96H223.894V93.48C230.494 93.48 231.334 91.92 231.334 84.48V47.28C231.334 40.08 228.574 36.84 223.774 36.84C218.614 36.84 214.294 40.68 209.974 46.32V84.48C209.974 91.92 210.814 93.48 217.414 93.48V96H195.574V93.48C202.534 93.48 203.374 91.92 203.374 84.48V44.64C203.374 37.08 203.494 35.76 196.534 38.76L195.454 36.36L204.574 32.4L208.294 30.84L209.974 32.16V42.24H210.334C214.654 35.64 219.454 30.84 226.414 30.84C233.134 30.84 236.614 35.28 237.574 42.24H237.934C242.254 35.64 246.934 30.84 254.014 30.84C262.174 30.84 265.534 37.32 265.534 46.92Z" fill="white"></path><path d="M96.2849 155V114.96H112.693L125.013 136.856L137.053 114.96H153.293V155H140.805V128.176L126.245 155H122.045L107.541 128.176V155H96.2849ZM154.808 155L172.448 114.96H189.192L206.664 155H193L189.92 147.496H170.04L166.848 155H154.808ZM180.064 123.696L173.4 139.544H186.616L180.064 123.696ZM230.283 155.672C212.419 155.672 203.011 147.496 203.011 135.232V134.784C203.011 122.52 214.659 114.4 229.891 114.4C243.723 114.4 252.963 119.16 254.363 129.632H241.035C240.251 125.544 236.779 123.192 229.947 123.192C221.827 123.192 216.563 127.504 216.563 134.728V135.176C216.563 142.4 221.547 146.712 230.115 146.712C236.891 146.712 241.259 144.584 242.211 140.048H254.979C253.691 150.352 244.171 155.672 230.283 155.672ZM257.088 155V114.96H270.024V130.36H290.632V114.96H303.568V155H290.632V139.152H270.024V155H257.088ZM309.145 155V114.96H322.193V155H309.145ZM327.777 155V114.96H342.953L362.665 139.488V114.96H373.753V155H360.649L338.921 127.616V155H327.777ZM379.118 155V114.96H417.478V123.416H391.942V130.528H413.782V138.984H391.942V146.544H418.654V155H379.118Z" fill="white"></path></svg>